<svg width="73" height="97" viewBox="0 0 73 97" fill="none" xmlns="http://www.w3.org/2000/svg">
<path d="M36.2685 60.952C53.039 60.952 66.6342 47.3074 66.6342 30.476C66.6342 13.6446 53.039 0 36.2685 0C19.498 0 5.90283 13.6446 5.90283 30.476C5.90283 47.3074 19.498 60.952 36.2685 60.952Z" fill="#495CE8"/>
<path d="M35.4299 48.5661C40.4504 48.1252 43.8083 39.5986 42.9298 29.5214C42.0514 19.4442 37.2693 11.6324 32.2487 12.0732C27.2282 12.514 23.8703 21.0406 24.7488 31.1178C25.6272 41.1951 30.4093 49.0069 35.4299 48.5661Z" fill="white"/>
<path d="M18.6202 49.0051C21.929 48.4195 23.4289 41.215 21.9704 32.9134C20.5119 24.6117 16.6473 18.3566 13.3385 18.9422C10.0297 19.5277 8.52976 26.7322 9.98827 35.0338C11.4468 43.3355 15.3114 49.5906 18.6202 49.0051Z" fill="white"/>
<path d="M19.1573 40.8507C20.4807 40.6165 20.9859 37.1963 20.2858 33.2114C19.5857 29.2265 17.9454 26.186 16.622 26.4202C15.2986 26.6544 14.7934 30.0746 15.4935 34.0595C16.1936 38.0444 17.8339 41.0849 19.1573 40.8507Z" fill="black"/>
<path d="M37.2955 39.443C39.3036 39.2667 40.5753 35.039 40.1361 30.0002C39.6968 24.9614 37.7129 21.0196 35.7049 21.1959C33.6969 21.3722 32.4252 25.5999 32.8644 30.6387C33.3037 35.6775 35.2875 39.6193 37.2955 39.443Z" fill="black"/>
<path d="M12.2084 95.9922C8.41003 95.9922 5.42545 94.8605 3.25475 92.597C1.08404 90.3335 -0.00086276 87.1425 5.1478e-07 83.024C5.1478e-07 78.9059 1.08515 75.7065 3.25542 73.4257C5.42569 71.1449 8.3934 70.0046 12.1586 70.0051C15.1766 70.0051 17.576 70.6859 19.357 72.0475C21.1379 73.409 22.0282 75.4682 22.0277 78.2251C22.027 78.7801 21.9931 79.3346 21.9261 79.8854C21.8785 80.3686 21.7584 80.8419 21.57 81.2891L15.2618 81.3397C15.446 80.7278 15.5319 80.0904 15.5163 79.4514C15.5163 77.3066 14.3634 76.2342 12.0576 76.2342C9.00416 76.2342 7.47792 78.4296 7.47878 82.8206C7.47878 85.101 7.94537 86.8284 8.87857 88.0028C9.3587 88.5914 9.97069 89.0578 10.6646 89.3638C11.3585 89.6699 12.1147 89.807 12.8714 89.7638C14.0264 89.8371 15.1749 89.5414 16.1521 88.9191C16.9282 88.3437 17.6061 87.6455 18.1592 86.852L22.4324 90.7314C21.4898 92.3226 20.1362 93.6284 18.5147 94.5106C16.5774 95.5484 14.4033 96.0592 12.2084 95.9922V95.9922Z" fill="black"/>
<path d="M47.7693 90.7333C46.6938 92.5001 45.1176 93.9047 43.2423 94.7673C41.1796 95.6835 38.9321 96.1031 36.6791 95.9929C33.0848 95.9244 30.2533 94.8352 28.1844 92.725C26.1156 90.6149 25.0812 87.6023 25.0812 83.6874C25.052 81.7485 25.3706 79.8201 26.0219 77.9945C26.594 76.4002 27.4858 74.9405 28.6422 73.7058C29.7697 72.5272 31.1299 71.5977 32.6357 70.9766C34.2414 70.3178 35.9623 69.9882 37.6969 70.0071C40.5789 70.0071 42.8515 70.6879 44.5146 72.0494C46.1777 73.411 47.0084 75.3342 47.0066 77.819C47.0449 79.1508 46.6717 80.4618 45.9383 81.5723C45.1744 82.6539 44.1497 83.5234 42.96 84.0994C41.5436 84.7934 40.0365 85.283 38.4835 85.5537C36.6273 85.8918 34.7481 86.0873 32.8623 86.1385C33.4731 88.6576 35.1349 89.917 37.8477 89.9165C38.9861 89.9518 40.1147 89.6969 41.1284 89.1757C42.0619 88.6516 42.8695 87.9283 43.4942 87.0567L47.7693 90.7333ZM37.5952 76.0295C36.9594 76.0074 36.3265 76.1261 35.7416 76.3775C35.1568 76.6289 34.6344 77.0066 34.2116 77.4837C33.257 78.6842 32.7123 80.1609 32.6577 81.6958C34.4963 81.6935 36.3236 81.4085 38.0763 80.851C39.4493 80.3589 40.136 79.5165 40.1365 78.3239C40.1378 76.7943 39.2905 76.0295 37.5946 76.0295H37.5952Z" fill="black"/>
<path d="M73.0006 90.7333C71.9251 92.5001 70.3489 93.9046 68.4736 94.7673C66.4111 95.6834 64.1638 96.1031 61.911 95.9929C58.3163 95.9244 55.4846 94.8352 53.4157 92.725C51.3469 90.6149 50.3114 87.6023 50.3093 83.6874C50.2797 81.7485 50.5984 79.8201 51.25 77.9945C51.8221 76.4003 52.7136 74.9407 53.8696 73.7058C54.9972 72.5273 56.3574 71.5978 57.8631 70.9766C59.4688 70.3179 61.1897 69.9882 62.9243 70.0071C65.8072 70.0071 68.0797 70.6879 69.742 72.0494C71.4042 73.411 72.2349 75.3342 72.234 77.819C72.2723 79.1508 71.8992 80.4618 71.1658 81.5723C70.402 82.654 69.3772 83.5235 68.1874 84.0994C66.7712 84.7934 65.2644 85.283 63.7116 85.5537C61.8552 85.8918 59.9757 86.0872 58.0897 86.1385C58.7005 88.6576 60.3623 89.917 63.0751 89.9165C64.2135 89.9518 65.3422 89.6969 66.3558 89.1757C67.2895 88.6516 68.0973 87.9282 68.7222 87.0567L73.0006 90.7333ZM62.8265 76.0295C62.1908 76.0073 61.558 76.1261 60.9732 76.3775C60.3885 76.6289 59.8662 77.0066 59.4435 77.4837C58.4887 78.6841 57.944 80.1608 57.8897 81.6958C59.7282 81.6935 61.5556 81.4085 63.3082 80.851C64.6817 80.3589 65.3684 79.5165 65.3684 78.3239C65.3693 76.7943 64.5218 76.0295 62.8258 76.0295H62.8265Z" fill="black"/>
</svg>
