<svg width="180" height="50" viewBox="0 0 180 50" fill="none" xmlns="http://www.w3.org/2000/svg">
<g clip-path="url(#clip0_8_57)">
<path d="M20.4384 24.776L18.9439 22.1829L12.0933 10.3112L11.8953 10.4668L11.6077 10.7025L11.2258 11.0372L10.9524 11.2824L10.5846 11.636L10.3253 11.8906L9.97171 12.263L9.72653 12.5318L9.38708 12.9184L9.15606 13.1965L8.84015 13.602L8.62329 13.8944C8.51957 14.0311 8.42055 14.1678 8.32626 14.3093C8.23196 14.4507 8.18479 14.512 8.11878 14.6157C8.05277 14.7194 7.93021 14.8986 7.84063 15.0448C7.75105 15.1909 7.7086 15.2522 7.6473 15.3606C7.58601 15.4691 7.47762 15.6482 7.39747 15.7944C7.31732 15.9405 7.27016 16.0208 7.20886 16.1339C7.14757 16.2471 7.05801 16.4215 6.98728 16.5676C6.91656 16.7138 6.86941 16.8081 6.80812 16.926C6.74683 17.0438 6.68081 17.2135 6.6148 17.3597C6.54879 17.5059 6.50166 17.6143 6.4498 17.7416C6.39793 17.8689 6.33665 18.0245 6.28007 18.1659L6.12445 18.5809C6.0773 18.7176 6.03491 18.8495 5.98776 18.9815C5.94061 19.1136 5.88872 19.288 5.84157 19.453C5.79443 19.618 5.77087 19.6982 5.73786 19.8208C5.70486 19.9434 5.64355 20.1603 5.60112 20.33C5.55868 20.4997 5.54924 20.5469 5.52566 20.6553C5.47852 20.8486 5.43613 21.0372 5.39841 21.2305C5.39841 21.3201 5.37008 21.405 5.35122 21.4945C5.3135 21.7114 5.27579 21.9283 5.24279 22.1498C4.99134 23.8979 4.99134 25.673 5.24279 27.421C5.27579 27.6379 5.3135 27.8547 5.35122 28.0716C5.35122 28.1612 5.38427 28.2508 5.39841 28.3357C5.43613 28.529 5.47852 28.7223 5.52566 28.9109C5.52566 29.0193 5.57283 29.1277 5.60112 29.2361C5.6294 29.3446 5.69072 29.5756 5.73786 29.7454C5.78501 29.9151 5.80386 29.9953 5.84157 30.1179L5.98776 30.5893C6.03491 30.7213 6.0773 30.858 6.12445 30.99L6.28007 31.405C6.33665 31.5464 6.3885 31.6878 6.4498 31.8293C6.51109 31.9707 6.55822 32.0839 6.6148 32.2112C6.67138 32.3385 6.74212 32.5035 6.81284 32.6496C6.88356 32.7958 6.92599 32.8854 6.98728 33.0032C7.04858 33.1211 7.13343 33.2956 7.20886 33.4418L7.39275 33.7765L7.6473 34.215L7.84063 34.5308L8.11878 34.9599C8.18479 35.0636 8.25553 35.1626 8.32154 35.2616C8.38755 35.3606 8.51957 35.5446 8.62329 35.6813C8.72702 35.818 8.76472 35.8745 8.84015 35.9688L9.16078 36.3791L9.38708 36.6524L9.72653 37.0438L9.96699 37.3079C10.0849 37.4352 10.2074 37.5578 10.33 37.6851L10.5799 37.935C10.7025 38.0575 10.8298 38.1754 10.9571 38.2933L11.2211 38.5336L11.6124 38.8732L11.8906 39.1042L12.0933 39.2644L18.9533 27.3927L20.4384 24.776Z" fill="#E9E9DC"/>
<path d="M24.9268 27.3927L23.4323 29.9859L16.5723 41.8576L16.7373 41.9237L17.2936 42.1311L17.5718 42.2253L18.1187 42.4046L18.4299 42.4894C18.609 42.5413 18.7835 42.5932 18.9626 42.6356L19.3021 42.7157C19.4766 42.7534 19.651 42.7958 19.8302 42.8288C20.0093 42.8619 20.0753 42.876 20.2026 42.8995C20.3299 42.9231 20.5374 42.9609 20.7071 42.9845L21.1362 43.0363C21.2918 43.0363 21.4426 43.0788 21.6077 43.0929L22.1451 43.1353L22.5176 43.1636C22.824 43.1636 23.1305 43.1636 23.4605 43.1636C23.7906 43.1636 24.0782 43.1636 24.4035 43.1636L24.7807 43.1353C24.9598 43.1353 25.139 43.1118 25.3134 43.0929C25.4879 43.074 25.6246 43.0598 25.7849 43.0363L26.2186 42.9845C26.3884 42.9609 26.5534 42.9278 26.7232 42.8995C26.8929 42.8712 26.973 42.8571 27.0956 42.8288L27.619 42.7157L27.9584 42.6356C28.1376 42.5932 28.3167 42.5413 28.4959 42.4894L28.807 42.4046L29.3492 42.2253L29.6321 42.1311L30.1885 41.9237C31.941 41.2347 33.5772 40.2806 35.04 39.0948L35.3229 38.8638L35.7094 38.5243L35.9782 38.2839L36.3554 37.9255L36.6053 37.6757C36.7278 37.5531 36.8457 37.4257 36.9636 37.2984L37.204 37.0344C37.3219 36.9071 37.4351 36.7752 37.5482 36.6431L37.7745 36.3697L38.0951 35.9594C38.1659 35.8651 38.2413 35.7709 38.312 35.6719L38.609 35.2522C38.6798 35.1532 38.7505 35.0542 38.8165 34.9505L39.0947 34.5215C39.156 34.4131 39.222 34.3093 39.288 34.2055C39.354 34.1018 39.4577 33.9133 39.5378 33.7671L39.7217 33.4324C39.8019 33.2862 39.8726 33.14 39.948 32.9938C40.0234 32.8477 40.0659 32.7582 40.1225 32.6356L40.3205 32.2065C40.3724 32.0745 40.4336 31.9471 40.4855 31.8198C40.5374 31.6925 40.5986 31.5417 40.6505 31.4003C40.7024 31.2588 40.759 31.1222 40.8061 30.9807C40.8533 30.8393 40.9004 30.7119 40.9428 30.5799C40.9853 30.4479 41.0466 30.2735 41.0937 30.1084L41.1974 29.736C41.2446 29.5662 41.2917 29.3965 41.3342 29.2267C41.3766 29.057 41.3861 29.0099 41.4096 28.9014C41.4521 28.7128 41.4944 28.5196 41.5322 28.3263C41.5322 28.2414 41.5652 28.1518 41.5794 28.0669C41.6218 27.85 41.6595 27.6285 41.6878 27.4116C41.6901 27.3976 41.6901 27.3832 41.6878 27.3691L24.9268 27.3927Z" fill="#F2FE5C"/>
<path d="M24.927 22.2065H41.6314C41.6337 22.1925 41.6337 22.1781 41.6314 22.164C41.6031 21.9425 41.5654 21.7256 41.523 21.5087C41.523 21.4192 41.4946 21.3343 41.4758 21.2447C41.438 21.0514 41.3957 20.8628 41.3532 20.6695C41.3532 20.5611 41.3061 20.4527 41.2778 20.3489C41.2354 20.1745 41.1882 20.0047 41.141 19.835C41.0939 19.6653 41.0703 19.5898 41.0373 19.4672C41.0043 19.3446 40.9383 19.1608 40.8864 18.9957C40.8346 18.8307 40.8016 18.7318 40.7545 18.5998C40.7073 18.4678 40.646 18.3168 40.5941 18.1801C40.5422 18.0434 40.4857 17.8973 40.4291 17.7605L40.2594 17.3739C40.1981 17.2277 40.1321 17.0816 40.0661 16.9402L39.8916 16.5818C39.8162 16.4357 39.7455 16.2895 39.6653 16.148L39.4814 15.8086C39.3966 15.6624 39.3165 15.5163 39.2316 15.3748L39.0336 15.059C38.944 14.9128 38.8544 14.7713 38.7601 14.6299C38.6658 14.4884 38.6234 14.4272 38.5526 14.3235L38.2556 13.9085L38.0387 13.6162L37.7181 13.2107L37.4871 12.9326C37.3787 12.8006 37.2655 12.6733 37.1524 12.546L36.9072 12.2772C36.7893 12.1499 36.6715 12.0273 36.5489 11.9047L36.2943 11.6502L35.9218 11.2966L35.6531 11.0514C35.5258 10.9383 35.3985 10.825 35.2665 10.7166L34.9836 10.4809C33.5209 9.29743 31.8866 8.34355 30.1368 7.65201C29.9529 7.58129 29.7643 7.50588 29.571 7.43987L29.2976 7.3456C29.1137 7.28431 28.9345 7.22307 28.7459 7.17121L28.4395 7.08154L27.902 6.93547L27.5672 6.85996L27.0392 6.7421L26.6668 6.67614C26.497 6.64785 26.332 6.61476 26.1622 6.59119L25.7285 6.53467C25.5777 6.53467 25.4221 6.49219 25.257 6.47804C25.092 6.4639 24.9034 6.44983 24.7243 6.43568L24.3471 6.41209C24.0453 6.41209 23.7342 6.38849 23.4041 6.38849C23.0741 6.38849 22.7865 6.38851 22.4612 6.41209L22.0887 6.43568C21.9095 6.43568 21.7304 6.43561 21.5513 6.47804C21.3721 6.52047 21.2448 6.51581 21.0798 6.53467C20.9148 6.55353 20.7922 6.56762 20.6507 6.59119C20.5093 6.61476 20.3112 6.64785 20.1462 6.67614L19.7738 6.7421L19.2457 6.85996L18.9109 6.93547L18.3688 7.08154L18.0623 7.17121C17.8784 7.22307 17.6946 7.28431 17.5154 7.3456L17.2372 7.43987L16.6714 7.65201L16.5159 7.71336L23.3759 19.5898L24.927 22.2065Z" fill="#64FA8C"/>
<path d="M50.5422 22.2064V27.3927H46.8647C46.5079 30.6336 45.4817 33.7651 43.8512 36.5886C42.2207 39.4122 40.0214 41.8663 37.3928 43.7953L34.7808 39.2691C38.5148 36.345 40.9716 32.0886 41.636 27.3927H24.9269L23.4324 29.9858L16.5724 41.8622C20.9751 43.6289 25.8896 43.6289 30.2923 41.8622L32.9043 46.3932C29.9173 47.6991 26.6924 48.3732 23.4324 48.3732C20.1723 48.3732 16.9474 47.6991 13.9604 46.3932L12.1217 49.5756L7.63322 46.9825L9.47193 43.7953C6.84326 41.8663 4.64399 39.4122 3.01348 36.5886C1.38298 33.7651 0.356811 30.6336 0 27.3927H5.22865C5.89306 32.0886 8.34989 36.345 12.0839 39.2691L18.9439 27.3927L20.4385 24.7995L18.9439 22.2064L12.0934 10.3064C8.35933 13.2305 5.9025 17.4869 5.23809 22.1828H0.00943872C0.366044 18.942 1.39265 15.8107 3.02407 12.9878C4.6555 10.1649 6.85607 7.71192 9.48609 5.78489L7.64266 2.59299L12.1311 -0.00012207L13.9698 3.18706C16.9558 1.8769 20.181 1.20044 23.4418 1.20044C26.7025 1.20044 29.9278 1.8769 32.9137 3.18706L30.3018 7.71327C25.8991 5.94659 20.9845 5.94659 16.5818 7.71327L23.4418 19.5897L24.9364 22.1828H41.6455C40.9811 17.4869 38.5242 13.2305 34.7902 10.3064L37.3975 5.78489C40.0275 7.71192 42.2281 10.1649 43.8595 12.9878C45.4909 15.8107 46.5175 18.942 46.8741 22.1828L50.5422 22.2064Z" fill="#0C0C0C"/>
<path d="M58.8308 24.5639C58.8308 16.5488 64.96 10.5045 73.0835 10.5045C81.207 10.5045 87.374 16.5677 87.374 24.5639C87.374 32.5601 81.2448 38.6186 73.0835 38.6186C64.9223 38.6186 58.8308 32.5318 58.8308 24.5639ZM82.5696 24.5639C82.5998 23.3079 82.3753 22.0589 81.9098 20.892C81.4443 19.7251 80.7474 18.6646 79.861 17.7742C78.9747 16.8839 77.9172 16.1822 76.7524 15.7115C75.5876 15.2408 74.3396 15.0108 73.0835 15.0354C67.7275 15.0354 63.654 19.1278 63.654 24.5639C63.654 30 67.7464 34.0877 73.0835 34.0877C74.3394 34.1129 75.5873 33.8835 76.7521 33.4133C77.9168 32.9431 78.9744 32.2419 79.8608 31.3519C80.7472 30.462 81.4442 29.4017 81.9098 28.2351C82.3753 27.0685 82.5998 25.8196 82.5696 24.5639V24.5639Z" fill="#131313"/>
<path d="M102.532 17.7275V22.2537H101.782C97.8455 22.2537 95.5211 24.6582 95.5211 28.3829V38.1471H91.1128V18.0669H95.5447V21.0184C96.2425 20.0042 97.1779 19.1763 98.2693 18.6068C99.3607 18.0373 100.575 17.7435 101.806 17.7511L102.532 17.7275Z" fill="#131313"/>
<path d="M126.78 28.0811C126.78 34.0641 122.537 38.595 116.879 38.595C115.518 38.6185 114.171 38.3249 112.943 37.7373C111.716 37.1498 110.642 36.2844 109.807 35.2098V38.1235H105.398V10.4808H109.807V20.9571C110.641 19.8817 111.715 19.0158 112.942 18.4281C114.17 17.8405 115.518 17.5472 116.879 17.5718C122.527 17.5718 126.78 22.098 126.78 28.0811ZM122.211 28.0811C122.199 26.8567 121.825 25.6633 121.135 24.6515C120.446 23.6396 119.472 22.8546 118.337 22.3953C117.202 21.936 115.957 21.823 114.758 22.0707C113.559 22.3183 112.46 22.9154 111.6 23.7868C110.739 24.6581 110.156 25.7646 109.924 26.9668C109.692 28.169 109.821 29.4131 110.295 30.542C110.769 31.671 111.566 32.6344 112.587 33.3107C113.608 33.987 114.806 34.3459 116.03 34.3423C116.852 34.3554 117.669 34.2018 118.43 33.8907C119.191 33.5797 119.881 33.1176 120.459 32.5325C121.036 31.9473 121.489 31.2513 121.791 30.4862C122.092 29.7211 122.235 28.9029 122.211 28.0811V28.0811Z" fill="#131313"/>
<path d="M129.925 13.2768C129.918 12.7146 130.079 12.1631 130.387 11.6928C130.696 11.2226 131.137 10.8549 131.656 10.6367C132.174 10.4185 132.745 10.3598 133.297 10.4679C133.849 10.576 134.356 10.8461 134.753 11.2437C135.151 11.6413 135.421 12.1483 135.529 12.7001C135.637 13.2519 135.579 13.8234 135.36 14.3417C135.142 14.8599 134.774 15.3014 134.304 15.6097C133.834 15.918 133.283 16.0792 132.72 16.0726C132.351 16.081 131.984 16.0144 131.641 15.8768C131.298 15.7393 130.986 15.5337 130.725 15.2724C130.463 15.0111 130.258 14.6995 130.12 14.3565C129.983 14.0135 129.916 13.6463 129.925 13.2768V13.2768ZM130.519 18.0434H134.927V38.1236H130.519V18.0434Z" fill="#131313"/>
<path d="M138.666 12.8477H143.074V18.0339H148.732V22.0509H143.074V31.537C143.074 33.4229 144.135 34.3328 145.988 34.3328C146.949 34.3223 147.894 34.0797 148.741 33.6256V37.7652C147.607 38.3343 146.351 38.6176 145.083 38.5903C140.75 38.5903 138.666 36.1481 138.666 32.249V12.8477Z" fill="#131313"/>
<path d="M171.853 18.0433V38.1235H167.44V35.2475C166.604 36.3115 165.533 37.1676 164.311 37.7484C163.089 38.3292 161.749 38.6189 160.396 38.595C154.738 38.595 150.495 34.0641 150.495 28.0811C150.495 22.098 154.71 17.5719 160.396 17.5719C161.749 17.547 163.089 17.8359 164.311 18.4159C165.533 18.9959 166.604 19.8512 167.44 20.9147V18.0433H171.853ZM167.44 28.0811C167.428 26.8567 167.053 25.6633 166.364 24.6515C165.675 23.6396 164.701 22.8546 163.566 22.3953C162.431 21.936 161.185 21.823 159.986 22.0707C158.787 22.3183 157.688 22.9154 156.828 23.7868C155.968 24.6581 155.385 25.7646 155.153 26.9668C154.921 28.169 155.05 29.4131 155.524 30.542C155.997 31.671 156.795 32.6344 157.816 33.3107C158.836 33.987 160.034 34.3459 161.259 34.3423C162.081 34.3554 162.897 34.2018 163.658 33.8907C164.419 33.5797 165.11 33.1176 165.687 32.5325C166.265 31.9473 166.718 31.2513 167.019 30.4862C167.32 29.7212 167.464 28.9029 167.44 28.0811V28.0811Z" fill="#131313"/>
<path d="M175.587 10.4808H180V38.1235H175.587V10.4808Z" fill="#131313"/>
</g>
<defs>
<clipPath id="clip0_8_57">
<rect width="180" height="49.5521" fill="white"/>
</clipPath>
</defs>
</svg>
