<svg width="166" height="56" viewBox="0 0 166 56" fill="none" xmlns="http://www.w3.org/2000/svg">
<path d="M152.424 0H13.2904C12.6674 0 12.2521 0 11.6291 0C11.2138 0 10.7984 0 10.3831 0C9.55247 0 8.51416 0 7.68351 0.207662C6.6452 0.415325 5.81455 0.622987 4.9839 1.03831C4.15325 1.45364 3.3226 2.07662 2.69961 2.69961C2.07662 3.3226 1.45364 4.15325 1.03831 4.9839C0.622987 5.81455 0.415325 6.6452 0.207662 7.68351C0.207662 8.51416 0 9.55247 0 10.3831C0 10.7984 0 11.2138 0 11.6291V43.6091C0 44.0244 0 44.4397 0 44.8551C0 45.6857 0 46.724 0.207662 47.5547C0.415325 48.3853 0.622987 49.4236 1.03831 50.2543C1.45364 51.0849 2.07662 51.9156 2.69961 52.5386C3.3226 53.1616 4.15325 53.7845 4.9839 54.1999C5.81455 54.6152 6.6452 54.8229 7.68351 55.0305C8.51416 55.2382 9.55247 55.2382 10.3831 55.2382C10.7984 55.2382 11.2138 55.2382 11.6291 55.2382C12.0444 55.2382 12.6674 55.2382 13.0827 55.2382H152.217C152.632 55.2382 153.255 55.2382 153.67 55.2382C154.085 55.2382 154.501 55.2382 154.916 55.2382C155.747 55.2382 156.785 55.2382 157.616 55.0305C158.446 54.8229 159.485 54.6152 160.315 54.1999C161.146 53.7845 161.977 53.1616 162.6 52.5386C163.223 51.9156 163.846 51.0849 164.261 50.2543C164.676 49.4236 164.884 48.593 165.092 47.5547C165.299 46.724 165.299 45.6857 165.299 44.8551C165.299 44.4397 165.299 44.0244 165.299 43.6091C165.299 43.1938 165.299 42.5708 165.299 42.1555V13.2904C165.299 12.8751 165.299 12.2521 165.299 11.8368C165.299 11.4214 165.299 11.0061 165.299 10.5908C165.299 9.76013 165.299 8.72182 165.092 7.89117C164.884 7.06052 164.676 6.02221 164.261 5.19156C163.43 3.53026 161.977 2.07662 160.315 1.24597C159.485 0.830649 158.654 0.622987 157.616 0.415325C156.993 0.207662 155.954 0 155.124 0C154.708 0 154.293 0 153.878 0C153.255 0 152.839 0 152.424 0Z" fill="#010101"/>
<path d="M11.6297 54.2004C11.2144 54.2004 10.7991 54.2004 10.3837 54.2004C9.55308 54.2004 8.72243 54.2004 7.89178 53.9927C7.06113 53.785 6.23048 53.5774 5.60749 53.162C4.9845 52.7467 4.15385 52.3314 3.73853 51.7084C3.11554 51.0854 2.70022 50.4624 2.28489 49.8394C1.86957 49.2165 1.66191 48.3858 1.45424 47.5552C1.24658 46.7245 1.24658 45.8939 1.24658 45.0632C1.24658 44.8556 1.24658 43.8172 1.24658 43.8172V11.6296C1.24658 11.6296 1.24658 10.5913 1.24658 10.3836C1.24658 9.55295 1.24658 8.7223 1.45424 7.89165C1.66191 7.06101 1.86957 6.23036 2.28489 5.60737C2.49256 4.77672 3.11554 4.15373 3.53087 3.53075C4.15385 3.11542 4.77684 2.49243 5.60749 2.28477C6.23048 1.86945 7.06113 1.66178 7.89178 1.45412C8.72243 1.24646 9.55308 1.24646 10.3837 1.24646H11.6297H153.878H155.124C155.955 1.24646 156.786 1.24646 157.616 1.45412C158.447 1.66178 159.278 1.86945 159.901 2.28477C161.354 3.11542 162.6 4.15373 163.223 5.60737C163.639 6.23036 163.846 7.06101 164.054 7.89165C164.262 8.7223 164.262 9.55295 164.262 10.5913C164.262 11.0066 164.262 11.4219 164.262 11.8372C164.262 12.2526 164.262 12.8756 164.262 13.2909V42.1559C164.262 42.5713 164.262 43.1943 164.262 43.6096C164.262 44.0249 164.262 44.4402 164.262 44.8556C164.262 45.6862 164.262 46.5168 164.054 47.3475C163.846 48.1781 163.639 49.0088 163.223 49.6318C162.808 50.2548 162.393 51.0854 161.77 51.5007C161.147 52.1237 160.524 52.5391 159.901 52.9544C159.278 53.3697 158.447 53.5774 157.616 53.785C156.786 53.9927 155.955 53.9927 155.124 53.9927C154.709 53.9927 154.294 53.9927 153.878 53.9927H152.425L11.6297 54.2004Z" fill="white"/>
<path d="M59.1788 15.3685C59.1788 16.4068 58.9712 17.2375 58.3482 17.8604C57.7252 18.4834 56.6869 18.8988 55.6486 18.8988C54.6103 18.8988 53.7796 18.4834 52.949 17.8604C52.1183 17.0298 51.9106 16.1991 51.9106 15.1608C51.9106 14.1225 52.326 13.2919 52.949 12.4612C53.5719 11.8382 54.6103 11.4229 55.6486 11.4229C56.0639 11.4229 56.6869 11.4229 57.1022 11.6306C57.5175 11.8382 57.9329 12.0459 58.1405 12.4612L57.5175 13.0842C57.1022 12.4612 56.4792 12.2536 55.6486 12.2536C54.8179 12.2536 54.1949 12.4612 53.7796 13.0842C53.1566 13.7072 52.949 14.3302 52.949 15.1608C52.949 15.9915 53.1566 16.6145 53.7796 17.2375C54.4026 17.8604 55.0256 18.0681 55.6486 18.0681C56.4792 18.0681 57.1022 17.8604 57.7252 17.2375C57.9329 16.8221 58.1405 16.4068 58.1405 15.7838H55.4409V14.7455H58.9712C59.1788 14.9532 59.1788 15.1608 59.1788 15.3685Z" fill="#231F20"/>
<path d="M64.5786 12.4612H61.256V14.7455H64.371V15.5762H61.4637V17.8604H64.7863V18.6911H60.6331V11.4229H64.7863V12.4612H64.5786Z" fill="#231F20"/>
<path d="M68.5223 18.6911H67.6916V12.4612H65.615V11.4229H70.5989V12.4612H68.5223V18.6911Z" fill="#231F20"/>
<path d="M74.1313 18.6911V11.4229H74.962V18.6911H74.1313Z" fill="#231F20"/>
<path d="M79.1153 18.6911H78.2846V12.4612H76.208V11.4229H81.1919V12.4612H79.1153V18.6911Z" fill="#231F20"/>
<path d="M90.5327 17.8604C89.9098 18.6911 88.8714 18.8988 87.8331 18.8988C86.7948 18.8988 85.9642 18.4834 85.1335 17.8604C84.5105 17.0298 84.0952 16.1991 84.0952 15.1608C84.0952 14.1225 84.5105 13.2919 85.1335 12.4612C85.7565 11.6306 86.7948 11.4229 87.8331 11.4229C88.8714 11.4229 89.7021 11.8382 90.5327 12.4612C91.1557 13.2919 91.5711 14.1225 91.5711 15.1608C91.5711 16.1991 91.1557 17.0298 90.5327 17.8604ZM85.9642 17.2375C86.5872 17.8604 87.2101 18.0681 87.8331 18.0681C88.6638 18.0681 89.2868 17.8604 89.7021 17.2375C90.3251 16.6145 90.5327 15.9915 90.5327 15.1608C90.5327 14.3302 90.3251 13.7072 89.7021 13.0842C89.2868 12.4612 88.6638 12.2536 87.8331 12.2536C87.0025 12.2536 86.3795 12.4612 85.9642 13.0842C85.3412 13.7072 85.1335 14.3302 85.1335 15.1608C85.1335 15.9915 85.3412 16.6145 85.9642 17.2375Z" fill="#231F20"/>
<path d="M92.8235 18.6911V11.4229H93.8618L97.5997 17.0298V15.5762V11.4229H98.4304V18.6911H97.3921L93.6541 12.8765V14.3302V18.6911H92.8235Z" fill="#231F20"/>
<path d="M83.8948 29.2829C80.9876 29.2829 78.7033 31.3595 78.7033 34.4744C78.7033 37.3817 80.9876 39.666 83.8948 39.666C86.8021 39.666 89.0864 37.5894 89.0864 34.4744C89.0864 31.3595 86.8021 29.2829 83.8948 29.2829ZM83.8948 37.3817C82.4412 37.3817 80.9876 36.1357 80.9876 34.2668C80.9876 32.3978 82.2335 31.1519 83.8948 31.1519C85.5561 31.1519 86.8021 32.3978 86.8021 34.2668C86.8021 36.1357 85.5561 37.3817 83.8948 37.3817ZM72.8887 29.2829C69.9815 29.2829 67.6972 31.3595 67.6972 34.4744C67.6972 37.3817 69.9815 39.666 72.8887 39.666C75.796 39.666 78.0803 37.5894 78.0803 34.4744C77.8726 31.3595 75.5883 29.2829 72.8887 29.2829ZM72.8887 37.3817C71.4351 37.3817 69.9815 36.1357 69.9815 34.2668C69.9815 32.3978 71.2274 31.1519 72.8887 31.1519C74.3424 31.1519 75.796 32.3978 75.796 34.2668C75.5883 36.1357 74.3424 37.3817 72.8887 37.3817ZM59.5983 30.7365V32.8131H64.7899C64.5822 34.0591 64.1669 34.8898 63.5439 35.5128C62.7133 36.3434 61.675 37.1741 59.5983 37.1741C56.4834 37.1741 53.9915 34.6821 53.9915 31.3595C53.9915 28.0369 56.4834 25.545 59.5983 25.545C61.2596 25.545 62.5056 26.168 63.5439 26.9986L64.9976 25.545C63.7516 24.299 61.8826 23.2607 59.5983 23.2607C55.2374 23.2607 51.4995 26.7909 51.4995 31.1519C51.4995 35.5128 55.2374 39.043 59.5983 39.043C61.8826 39.043 63.7516 38.2124 65.2052 36.7587C66.6589 35.3051 67.0742 33.2285 67.0742 31.7748C67.0742 31.3595 67.0742 30.7365 66.8665 30.3212H59.5983V30.7365ZM113.798 32.3978C113.383 31.3595 112.137 29.0752 109.437 29.0752C106.738 29.0752 104.661 31.1519 104.661 34.2668C104.661 37.1741 106.738 39.4583 109.645 39.4583C111.929 39.4583 113.383 38.0047 113.798 37.1741L112.137 35.9281C111.514 36.7587 110.683 37.3817 109.645 37.3817C108.607 37.3817 107.776 36.7587 107.153 35.9281L114.006 33.0208L113.798 32.3978ZM106.945 34.0591C106.945 32.1902 108.399 31.1519 109.645 31.1519C110.476 31.1519 111.306 31.5672 111.514 32.1902L106.945 34.0591ZM101.338 39.043H103.623V24.0913H101.338V39.043ZM97.6006 30.3212C96.9776 29.6982 96.1469 29.2829 94.9009 29.2829C92.409 29.2829 89.917 31.5672 89.917 34.4744C89.917 37.3817 92.2013 39.4583 94.9009 39.4583C96.1469 39.4583 97.1852 38.8354 97.6006 38.2124V39.043C97.6006 40.912 96.5622 41.9503 94.9009 41.9503C93.4473 41.9503 92.6167 40.912 92.409 40.0813L90.54 40.912C91.163 42.3656 92.6167 44.0269 95.1086 44.0269C97.8082 44.0269 99.8848 42.5733 99.8848 38.6277V29.4906H97.8082V30.3212H97.6006ZM95.1086 37.3817C93.655 37.3817 92.2013 36.1357 92.2013 34.2668C92.2013 32.3978 93.4473 31.1519 95.1086 31.1519C96.5622 31.1519 97.8082 32.3978 97.8082 34.2668C97.8082 36.1357 96.5622 37.3817 95.1086 37.3817ZM124.389 24.0913H118.99V39.043H121.274V33.4361H124.389C126.881 33.4361 129.373 31.5672 129.373 28.8676C129.373 26.168 126.881 24.0913 124.389 24.0913ZM124.389 31.3595H121.274V26.168H124.389C126.05 26.168 127.089 27.6216 127.089 28.6599C127.089 29.9059 126.05 31.3595 124.389 31.3595ZM138.302 29.0752C136.641 29.0752 134.98 29.6982 134.357 31.3595L136.433 32.1902C136.849 31.3595 137.679 31.1519 138.51 31.1519C139.756 31.1519 140.794 31.7748 140.794 33.0208V33.2285C140.379 33.0208 139.548 32.6055 138.51 32.6055C136.433 32.6055 134.149 33.8515 134.149 35.9281C134.149 38.0047 135.81 39.2507 137.887 39.2507C139.341 39.2507 140.171 38.6277 140.794 37.797V39.043H142.871V33.2285C142.871 30.7365 140.794 29.0752 138.302 29.0752ZM138.095 37.3817C137.264 37.3817 136.433 36.9664 136.433 36.1357C136.433 34.8898 137.679 34.4744 138.718 34.4744C139.756 34.4744 140.171 34.6821 140.794 34.8898C140.587 36.3434 139.341 37.3817 138.095 37.3817ZM150.762 29.4906L148.27 35.9281L145.363 29.4906H142.871L146.817 38.6277L144.74 43.6116H147.024L153.254 29.4906H150.762ZM130.619 39.043H132.903V24.0913H130.619V39.043Z" fill="#231F20"/>
<path d="M14.7382 12.2531C14.3229 12.4607 14.1152 13.0837 14.1152 13.9143V40.4951C14.1152 41.3258 14.3229 41.7411 14.7382 42.1564L29.6899 27.2047V26.9971L14.7382 12.2531Z" fill="#5FC8F2"/>
<path d="M34.6741 32.1855L29.6902 27.2016V26.994L34.6741 22.0101H34.8817L40.6963 25.3327C42.3576 26.371 42.3576 27.8246 40.6963 28.8629L34.6741 32.1855Z" fill="url(#paint0_linear_8_71)"/>
<path d="M34.6739 32.1895L29.69 26.998L14.7383 41.9497C15.3613 42.5727 16.1919 42.5727 17.2302 41.9497L34.6739 32.1895Z" fill="url(#paint1_linear_8_71)"/>
<path d="M34.6739 22.0127L17.2302 12.0449C16.1919 11.4219 15.3613 11.6295 14.7383 12.0449L29.69 26.9965L34.6739 22.0127Z" fill="url(#paint2_linear_8_71)"/>
<defs>
<linearGradient id="paint0_linear_8_71" x1="39.5074" y1="27.0974" x2="10.4955" y2="27.0974" gradientUnits="userSpaceOnUse">
<stop stop-color="#FEDF00"/>
<stop offset="0.1818" stop-color="#FCCF0C"/>
<stop offset="0.54" stop-color="#FAB41A"/>
<stop offset="0.8253" stop-color="#F9A21E"/>
<stop offset="1" stop-color="#F99C1E"/>
</linearGradient>
<linearGradient id="paint1_linear_8_71" x1="31.9782" y1="29.8527" x2="4.69095" y2="57.14" gradientUnits="userSpaceOnUse">
<stop stop-color="#EE4547"/>
<stop offset="1" stop-color="#C51D6D"/>
</linearGradient>
<linearGradient id="paint2_linear_8_71" x1="4.56947" y1="-3.06112" x2="26.8487" y2="19.2181" gradientUnits="userSpaceOnUse">
<stop stop-color="#259F70"/>
<stop offset="0.3271" stop-color="#4EAB6D"/>
<stop offset="0.7437" stop-color="#6BBA6A"/>
<stop offset="1" stop-color="#75C269"/>
</linearGradient>
</defs>
</svg>
