<svg width="166" height="56" viewBox="0 0 166 56" fill="none" xmlns="http://www.w3.org/2000/svg">
<path d="M152.424 0H13.2904C12.6674 0 12.2521 0 11.6291 0C11.2138 0 10.7984 0 10.3831 0C9.55247 0 8.51416 0 7.68351 0.207662C6.6452 0.415325 5.81455 0.622987 4.9839 1.03831C4.15325 1.45364 3.3226 2.07662 2.69961 2.69961C2.07662 3.3226 1.45364 4.15325 1.03831 4.9839C0.622987 5.81455 0.415325 6.6452 0.207662 7.68351C0.207662 8.51416 0 9.55247 0 10.3831C0 10.7984 0 11.2138 0 11.6291V43.6091C0 44.0244 0 44.4397 0 44.8551C0 45.6857 0 46.724 0.207662 47.5547C0.415325 48.3853 0.622987 49.4236 1.03831 50.2543C1.45364 51.0849 2.07662 51.9156 2.69961 52.5386C3.3226 53.1616 4.15325 53.7845 4.9839 54.1999C5.81455 54.6152 6.6452 54.8229 7.68351 55.0305C8.51416 55.2382 9.55247 55.2382 10.3831 55.2382C10.7984 55.2382 11.2138 55.2382 11.6291 55.2382C12.0444 55.2382 12.6674 55.2382 13.0827 55.2382H152.217C152.632 55.2382 153.255 55.2382 153.67 55.2382C154.085 55.2382 154.501 55.2382 154.916 55.2382C155.747 55.2382 156.785 55.2382 157.616 55.0305C158.446 54.8229 159.485 54.6152 160.315 54.1999C161.146 53.7845 161.977 53.1616 162.6 52.5386C163.223 51.9156 163.846 51.0849 164.261 50.2543C164.676 49.4236 164.884 48.593 165.092 47.5547C165.299 46.724 165.299 45.6857 165.299 44.8551C165.299 44.4397 165.299 44.0244 165.299 43.6091C165.299 43.1938 165.299 42.5708 165.299 42.1555V13.2904C165.299 12.8751 165.299 12.2521 165.299 11.8368C165.299 11.4214 165.299 11.0061 165.299 10.5908C165.299 9.76013 165.299 8.72182 165.092 7.89117C164.884 7.06052 164.676 6.02221 164.261 5.19156C163.43 3.53026 161.977 2.07662 160.315 1.24597C159.485 0.830649 158.654 0.622987 157.616 0.415325C156.993 0.207662 155.954 0 155.124 0C154.708 0 154.293 0 153.878 0C153.255 0 152.839 0 152.424 0Z" fill="#010101"/>
<path d="M11.6297 54.2004C11.2144 54.2004 10.7991 54.2004 10.3837 54.2004C9.55308 54.2004 8.72243 54.2004 7.89178 53.9927C7.06113 53.785 6.23048 53.5774 5.60749 53.162C4.9845 52.7467 4.15385 52.3314 3.73853 51.7084C3.11554 51.0854 2.70022 50.4624 2.28489 49.8394C1.86957 49.2165 1.66191 48.3858 1.45424 47.5552C1.24658 46.7245 1.24658 45.8939 1.24658 45.0632C1.24658 44.8556 1.24658 43.8172 1.24658 43.8172V11.6296C1.24658 11.6296 1.24658 10.5913 1.24658 10.3836C1.24658 9.55295 1.24658 8.7223 1.45424 7.89165C1.66191 7.06101 1.86957 6.23036 2.28489 5.60737C2.49256 4.77672 3.11554 4.15373 3.53087 3.53075C4.15385 3.11542 4.77684 2.49243 5.60749 2.28477C6.23048 1.86945 7.06113 1.66178 7.89178 1.45412C8.72243 1.24646 9.55308 1.24646 10.3837 1.24646H11.6297H153.878H155.124C155.955 1.24646 156.786 1.24646 157.616 1.45412C158.447 1.66178 159.278 1.86945 159.901 2.28477C161.354 3.11542 162.6 4.15373 163.223 5.60737C163.639 6.23036 163.846 7.06101 164.054 7.89165C164.262 8.7223 164.262 9.55295 164.262 10.5913C164.262 11.0066 164.262 11.4219 164.262 11.8372C164.262 12.2526 164.262 12.8756 164.262 13.2909V42.1559C164.262 42.5713 164.262 43.1943 164.262 43.6096C164.262 44.0249 164.262 44.4402 164.262 44.8556C164.262 45.6862 164.262 46.5168 164.054 47.3475C163.846 48.1781 163.639 49.0088 163.223 49.6318C162.808 50.2548 162.393 51.0854 161.77 51.5007C161.147 52.1237 160.524 52.5391 159.901 52.9544C159.278 53.3697 158.447 53.5774 157.616 53.785C156.786 53.9927 155.955 53.9927 155.124 53.9927C154.709 53.9927 154.294 53.9927 153.878 53.9927H152.425L11.6297 54.2004Z" fill="white"/>
<path d="M34.4771 27.4114C34.4771 24.9194 35.7231 22.6352 37.7997 21.3892C36.5537 19.5202 34.2694 18.2743 31.9851 18.2743C29.4932 18.0666 27.2089 19.7279 25.9629 19.7279C24.717 19.7279 22.848 18.2743 20.7714 18.2743C18.2794 18.6896 15.9951 20.1432 14.5415 22.4275C11.8419 27.2037 13.9185 34.2642 16.4105 38.2098C17.6564 40.0788 19.3177 42.1554 21.3944 42.1554C23.471 42.1554 24.094 40.9094 26.5859 40.9094C28.8702 40.9094 29.7009 42.1554 31.7775 42.1554C33.8541 42.1554 35.3077 40.2865 36.5537 38.4175C37.592 36.9639 38.215 35.5102 38.838 34.0566C36.1384 32.8106 34.6848 30.3187 34.4771 27.4114Z" fill="#010101"/>
<path d="M30.7382 15.7842C31.9842 14.3306 32.3995 12.6693 32.3995 10.8003C30.5306 11.008 28.8693 11.8386 27.831 13.0846C26.585 14.3306 26.1697 16.1995 26.1697 17.8608C27.831 18.0685 29.4923 17.2378 30.7382 15.7842Z" fill="#010101"/>
<path d="M58.5671 37.587H51.9219L50.2606 42.1556H47.561L53.7909 24.9196H56.6982L62.928 42.1556H60.0208L58.5671 37.587ZM52.7526 35.3027H57.9442L55.4522 27.8269L52.7526 35.3027Z" fill="#010101"/>
<path d="M76.2172 35.9256C76.2172 39.8712 74.1406 42.3631 71.0257 42.3631C69.3644 42.3631 67.9107 41.5325 67.0801 40.0788V46.3087H64.5881V29.6957H67.0801V31.7723C67.9107 30.3187 69.3644 29.488 71.0257 29.488C74.1406 29.488 76.2172 31.98 76.2172 35.9256ZM73.7253 35.9256C73.7253 33.4336 72.4793 31.7723 70.4027 31.7723C68.5337 31.7723 67.0801 33.4336 67.0801 35.9256C67.0801 38.4175 68.3261 40.0788 70.4027 40.0788C72.2716 40.0788 73.7253 38.4175 73.7253 35.9256Z" fill="#010101"/>
<path d="M90.1332 35.9256C90.1332 39.8712 88.0566 42.3631 84.9417 42.3631C83.2804 42.3631 81.8267 41.5325 80.9961 40.0788V46.3087H78.5042V29.6957H80.9961V31.7723C81.8267 30.3187 83.2804 29.488 84.9417 29.488C88.0566 29.488 90.1332 31.98 90.1332 35.9256ZM87.4336 35.9256C87.4336 33.4336 86.1877 31.7723 84.111 31.7723C82.2421 31.7723 80.7884 33.4336 80.7884 35.9256C80.7884 38.4175 82.0344 40.0788 84.111 40.0788C86.1877 40.0788 87.4336 38.4175 87.4336 35.9256Z" fill="#010101"/>
<path d="M99.2686 37.3803C99.4763 39.0416 101.138 40.2876 103.422 40.2876C105.498 40.2876 107.16 39.2493 107.16 37.588C107.16 36.342 106.121 35.5113 104.045 34.8883L101.761 34.2654C98.6456 33.4347 97.192 31.9811 97.192 29.6968C97.192 26.7895 99.6839 24.7129 103.422 24.7129C106.952 24.7129 109.444 26.7895 109.652 29.6968H107.16C106.952 28.0355 105.498 26.9972 103.422 26.9972C101.345 26.9972 99.6839 28.0355 99.6839 29.4891C99.6839 30.7351 100.515 31.3581 102.799 31.9811L104.668 32.3964C108.198 33.227 109.652 34.6807 109.652 37.1726C109.652 40.2876 107.16 42.3642 103.007 42.3642C99.2686 42.3642 96.569 40.4952 96.3613 37.3803H99.2686Z" fill="#010101"/>
<path d="M115.258 26.7883V29.6956H117.543V31.7722H115.258V38.6251C115.258 39.6634 115.674 40.2864 116.712 40.2864C116.92 40.2864 117.335 40.2864 117.543 40.2864V42.363C117.127 42.363 116.504 42.5707 116.089 42.5707C113.597 42.5707 112.559 41.5324 112.559 39.2481V31.9799H110.69V29.9033H112.559V26.996H115.258V26.7883Z" fill="#010101"/>
<path d="M118.995 35.9256C118.995 31.98 121.279 29.488 125.017 29.488C128.547 29.488 131.039 31.98 131.039 35.9256C131.039 39.8712 128.755 42.3631 125.017 42.3631C121.279 42.3631 118.995 39.8712 118.995 35.9256ZM128.339 35.9256C128.339 33.226 127.093 31.5647 125.017 31.5647C122.94 31.5647 121.694 33.226 121.694 35.9256C121.694 38.6252 122.94 40.2865 125.017 40.2865C127.093 40.2865 128.339 38.6252 128.339 35.9256Z" fill="#010101"/>
<path d="M133.116 29.6957H135.608V31.7723C136.023 30.3187 137.269 29.488 138.723 29.488C138.931 29.488 139.346 29.488 139.554 29.488V31.98C139.138 31.7723 138.723 31.7723 138.308 31.7723C136.854 31.7723 135.608 32.8106 135.608 34.2643C135.608 34.4719 135.608 34.4719 135.608 34.6796V42.1554H133.116V29.6957Z" fill="#010101"/>
<path d="M151.393 38.4164C150.978 40.7007 148.902 42.1544 145.994 42.1544C142.256 42.1544 140.18 39.6624 140.18 35.7168C140.18 31.7712 142.464 29.2793 145.994 29.2793C149.524 29.2793 151.601 31.5636 151.601 35.5092V36.3398H142.672V36.5475C142.464 38.4164 143.918 39.8701 145.579 40.0777C145.787 40.0777 145.787 40.0777 145.994 40.0777C147.24 40.2854 148.486 39.4548 148.901 38.4164H151.393ZM142.672 34.6785H148.901C148.901 33.0172 147.656 31.5636 145.994 31.5636H145.787C144.125 31.5636 142.672 33.0172 142.672 34.6785Z" fill="#010101"/>
<path d="M52.3362 12.047C54.4129 11.8394 56.0742 13.5007 56.2818 15.3696C56.2818 15.5773 56.2818 15.7849 56.2818 15.9926C56.2818 18.6922 54.8282 20.1458 52.3362 20.1458H49.429V11.8394H52.3362V12.047ZM50.6749 19.1075H52.1286C53.5822 19.1075 54.8282 18.0692 54.8282 16.6156C54.8282 16.4079 54.8282 16.2003 54.8282 15.9926C55.0358 14.539 53.9975 13.293 52.5439 13.0853C52.3362 13.0853 52.1286 13.0853 52.1286 13.0853H50.6749V19.1075Z" fill="#010101"/>
<path d="M57.7357 17.2393C57.5281 15.578 58.774 14.1243 60.4353 14.1243C62.0966 13.9167 63.5503 15.1626 63.5503 16.8239C63.5503 17.0316 63.5503 17.2393 63.5503 17.4469C63.7579 19.1082 62.512 20.5619 60.8507 20.7695C59.1894 20.9772 57.7357 19.7312 57.5281 18.0699C57.7357 17.6546 57.7357 17.4469 57.7357 17.2393ZM62.3043 17.2393C62.3043 15.7856 61.6813 15.1626 60.643 15.1626C59.6047 15.1626 58.9817 15.9933 58.9817 17.2393C58.9817 18.6929 59.6047 19.3159 60.643 19.3159C61.6813 19.3159 62.3043 18.4852 62.3043 17.2393Z" fill="#010101"/>
<path d="M71.4374 20.3574H70.1915L68.9455 15.7889L67.6995 20.3574H66.4535L64.7922 14.1276H66.0382L67.0765 18.9038L68.3225 14.1276H69.5685L70.6068 18.9038L71.6451 14.1276H72.8911L71.4374 20.3574Z" fill="#010101"/>
<path d="M74.5552 14.1248H75.8011V15.1631C76.2165 14.3325 76.8395 13.9172 77.6701 14.1248C78.7084 14.1248 79.7467 14.9555 79.7467 15.9938C79.7467 16.2014 79.7467 16.2014 79.7467 16.4091V20.3547H78.5008V16.6168C78.5008 15.5785 78.0854 15.1631 77.2548 15.1631C76.4241 15.1631 75.8011 15.7861 75.8011 16.6168V16.8244V20.5624H74.5552V14.1248Z" fill="#010101"/>
<path d="M81.8252 11.6336H83.0712V20.3554H81.8252V11.6336Z" fill="#010101"/>
<path d="M84.7326 17.2393C84.5249 15.578 85.7709 14.1243 87.4322 14.1243C89.0935 13.9167 90.5471 15.1626 90.5471 16.8239C90.5471 17.0316 90.5471 17.2393 90.5471 17.4469C90.7548 19.1082 89.5088 20.5619 87.8475 20.7695C86.1862 20.9772 84.7326 19.7312 84.5249 18.0699C84.7326 17.6546 84.7326 17.4469 84.7326 17.2393ZM89.3011 17.2393C89.3011 15.7856 88.6781 15.1626 87.6398 15.1626C86.6015 15.1626 85.9785 15.9933 85.9785 17.2393C85.9785 18.6929 86.6015 19.3159 87.6398 19.3159C88.6781 19.3159 89.3011 18.4852 89.3011 17.2393Z" fill="#010101"/>
<path d="M91.7952 18.4874C91.7952 17.4491 92.6258 16.6184 94.0794 16.6184H95.7407V15.9954C95.7407 15.3725 95.3254 14.9571 94.4948 14.9571C93.8718 14.9571 93.2488 15.1648 93.2488 15.5801H92.0028C92.2105 14.5418 93.0411 13.9188 94.4948 13.9188C96.1561 13.9188 96.9867 14.7495 96.9867 15.9954V20.1487H95.7407V19.5257C95.3254 20.1487 94.7024 20.564 93.8718 20.564C92.8335 20.564 92.0028 19.7334 91.7952 18.4874C91.7952 18.6951 91.7952 18.6951 91.7952 18.4874ZM95.9484 18.0721V17.4491H94.4948C93.6641 17.4491 93.2488 17.8644 93.2488 18.2797C93.2488 18.9027 93.6641 19.1104 94.4948 19.1104C95.1178 19.5257 95.7408 18.9027 95.9484 18.0721Z" fill="#010101"/>
<path d="M98.6467 17.2405C98.6467 15.3715 99.685 14.1256 101.139 14.1256C101.969 14.1256 102.592 14.5409 103.008 15.1639V11.6336H104.254V20.3554H103.008V19.3171C102.592 19.9401 101.762 20.3554 101.139 20.3554C99.685 20.3554 98.6467 19.1095 98.6467 17.2405ZM99.8927 17.2405C99.8927 18.4865 100.516 19.3171 101.554 19.3171C102.592 19.3171 103.215 18.4865 103.215 17.2405C103.215 15.9945 102.592 15.1639 101.554 15.1639C100.516 15.1639 99.8927 15.9945 99.8927 17.2405Z" fill="#010101"/>
<path d="M109.653 17.2393C109.446 15.578 110.692 14.1243 112.353 14.1243C114.014 13.9167 115.468 15.1626 115.468 16.8239C115.468 17.0316 115.468 17.2393 115.468 17.4469C115.675 19.1082 114.429 20.5619 112.768 20.7695C111.107 20.9772 109.653 19.7312 109.446 18.0699C109.653 17.6546 109.653 17.4469 109.653 17.2393ZM114.222 17.2393C114.222 15.7856 113.599 15.1626 112.56 15.1626C111.522 15.1626 110.899 15.9933 110.899 17.2393C110.899 18.6929 111.522 19.3159 112.56 19.3159C113.599 19.3159 114.222 18.4852 114.222 17.2393Z" fill="#010101"/>
<path d="M117.127 14.1248H118.373V15.1631C118.788 14.3325 119.411 13.9172 120.242 14.1248C121.28 14.1248 122.319 14.9555 122.319 15.9938C122.319 16.2014 122.319 16.2014 122.319 16.4091V20.3547H121.073V16.6168C121.073 15.5785 120.657 15.1631 119.827 15.1631C118.996 15.1631 118.373 15.7861 118.373 16.6168C118.373 16.6168 118.373 16.6168 118.373 16.6168V20.3547H117.127V14.1248Z" fill="#010101"/>
<path d="M129.381 12.4686V14.1299H130.627V15.1682H129.381V18.2831C129.381 18.9061 129.589 19.3214 130.212 19.3214C130.42 19.3214 130.627 19.3214 130.627 19.3214V20.3597C130.42 20.3597 130.212 20.3597 130.004 20.3597C128.551 20.3597 128.135 19.9444 128.135 18.6984V15.1682H127.097V14.1299H128.135V12.4686H129.381Z" fill="#010101"/>
<path d="M132.287 11.6336H133.533V15.1639C133.948 14.3332 134.571 13.9179 135.401 14.1256C136.44 14.1256 137.478 14.9562 137.478 15.9945C137.478 16.2022 137.478 16.2022 137.478 16.4098V20.3554H136.232V16.6175C136.232 15.5792 135.817 15.1639 134.986 15.1639C134.155 15.1639 133.532 15.7869 133.325 16.4098V16.6175V20.3554H132.079L132.287 11.6336Z" fill="#010101"/>
<path d="M144.953 18.6961C144.538 19.9421 143.5 20.5651 142.254 20.5651C140.592 20.5651 139.346 19.3191 139.346 17.8655C139.346 17.6578 139.346 17.6578 139.346 17.4502C139.139 15.7889 140.177 14.3352 141.838 14.1276C142.046 14.1276 142.046 14.1276 142.254 14.1276C143.915 14.1276 144.953 15.3735 144.953 17.2425V17.6578H140.592C140.592 18.4885 141.215 19.3191 142.046 19.5268H142.254C142.877 19.5268 143.5 19.3191 143.707 18.6961H144.953ZM140.592 16.6195H143.707C143.707 15.7889 143.084 15.1659 142.254 14.9582C142.254 14.9582 142.254 14.9582 142.046 14.9582C141.423 14.9582 140.592 15.7889 140.592 16.6195Z" fill="#010101"/>
</svg>
